<svg xmlns="http://www.w3.org/2000/svg" width="219.784" height="63.64" viewBox="0 0 219.784 63.64"><defs><style>.a,.i,.j{fill:#fff;}.b{fill:#ffd400;}.c{fill:#f1b600;}.d{fill:#1a1818;}.e{fill:#4d4c4c;}.f,.g,.h{fill:none;stroke:#1a1818;}.f{stroke-width:0.762px;}.g,.h{stroke-linecap:round;stroke-linejoin:round;}.g{stroke-width:0.625px;}.h{stroke-width:0.512px;}.i,.j{font-size:8px;}.i{font-family:NotoSans-Bold, Noto Sans;font-weight:700;}.j{font-family:NotoSans, Noto Sans;}</style></defs><g transform="translate(-241.216 -18.36)"><g transform="translate(-158 -1)"><g transform="translate(166.169 -328.064)"><g transform="translate(300.602 369.102)"><path class="a" d="M284.984,364.31h10.867c5.442,0,7.429,3.255,7.429,7.04,0,2.424-1.034,5.156-3.612,5.634,2.2.394,4.032,2.582,4.032,5.935,0,4.9-2.214,7.739-7.759,7.739H284.984Zm10.568,10.443c1.8,0,2.766-1.106,2.766-2.99,0-2.437-1.495-3-2.766-3h-5.516v5.993Zm.192,11.459c1.534,0,2.919-.726,2.919-3.523,0-1.931-.786-3.7-2.919-3.7h-5.708v7.221Z" transform="translate(-284.984 -364.024)"/><path class="a" d="M301.572,369.787c0-4.575,3.238-5.521,5.721-5.477,0,0,9.273.265,11.6.581v4.16H308.481c-1.87,0-1.87,1.044-1.87,2.019v4.108l10.633.38v4.147l-10.633.335v4.113c.009,1.911,1.185,1.871,2.235,1.871h10.043v4.126c-2.043.285-11.236.61-11.236.61-2.344.106-6.08-.419-6.08-5.281Z" transform="translate(-279.919 -364.024)"/><path class="a" d="M317.213,369.787c0-4.575,3.232-5.521,5.713-5.477,0,0,9.285.265,11.6.581v4.16H324.119c-1.869,0-1.869,1.044-1.869,2.019v4.108l10.632.38v4.147l-10.632.335v4.113c.016,1.911,1.188,1.871,2.236,1.871h10.04v4.126c-2.043.285-11.228.61-11.228.61-2.353.106-6.085-.419-6.085-5.281Z" transform="translate(-275.144 -364.024)"/><path class="a" d="M341,364.091a36.462,36.462,0,0,1,10.137,1.172v3.9a87.839,87.839,0,0,0-8.949-.628c-3.975,0-4.743,2.441-4.743,8.939,0,6.846.784,8.689,4.515,8.722a8.109,8.109,0,0,0,4.537-1.656v-4.719h-3.7v-3.188a16.767,16.767,0,0,1,6.292-.9c.751,0,1.578.033,2.442.107v14.882h-3.622l-1.348-1.767c-1.171,1.072-2.549,1.852-5.588,1.945-7.455.291-8.569-5.986-8.569-13.494,0-7.652,1.438-13.317,8.594-13.317" transform="translate(-270.505 -364.091)"/><path class="a" d="M349.6,364.31H361.13c4.109,0,7.166,1.925,7.166,8.216,0,6.525-2.731,7.3-4.186,7.754l4.984,10.379h-5.668l-4.36-9.969-4.422-.5v10.473H349.6Zm11.033,11.918c1.753,0,2.587-.516,2.587-3.7,0-2.993-1-3.732-2.587-3.732H354.66v7.434Z" transform="translate(-265.255 -364.024)"/><rect class="a" width="5.035" height="26.347" transform="translate(106.549 0.286)"/><path class="a" d="M373.06,370.947c0-5.215,3.094-6.738,7.128-6.8a39.909,39.909,0,0,1,10.18,1.042v3.959c-2.3-.2-7.49-.359-8.8-.359-2.2-.046-3.47.1-3.47,2.558v1.282c0,2.09.8,2.54,2.846,2.54H385.1c5.168,0,6.224,4.07,6.224,6.981v1.756c0,5.981-3.72,7.09-7.281,7.09a35.1,35.1,0,0,1-10.17-1.079v-3.963c1.437.145,5.824.394,9.18.394,1.517,0,3.235-.249,3.235-2.262v-1.421c0-1.5-.448-2.458-2.37-2.458h-4.054c-6.35,0-6.8-4.69-6.8-6.983Z" transform="translate(-258.093 -364.076)"/></g><g transform="translate(233.831 347.68)"><path class="b" d="M268.8,369.873s11.867-2.779,4.978-10.376c0,0-3.654-2.377-9.276,4.921" transform="translate(-224.466 -344.185)"/><path class="c" d="M272.654,360.359a5.173,5.173,0,0,0-2.731,4.439,4.461,4.461,0,0,1-.509-1.893,7.466,7.466,0,0,0-1.4,4.637l-1.4-1.83s1.005-5.151,6.038-5.353" transform="translate(-223.821 -343.809)"/><path class="b" d="M251.858,363.291H247.43l-.6-.867s.437-4.972,5.025-4.049" transform="translate(-229.861 -344.45)"/><path class="b" d="M243.621,369.873s-11.868-2.779-4.981-10.376c0,0,3.655-2.377,9.279,4.921" transform="translate(-233.019 -344.185)"/><path class="c" d="M238.511,360.359a5.183,5.183,0,0,1,2.731,4.439,4.461,4.461,0,0,0,.509-1.893,7.46,7.46,0,0,1,1.4,4.637l1.4-1.83s-1-5.151-6.033-5.353" transform="translate(-232.402 -343.809)"/><path class="d" d="M237.348,360.162s-5.485,7.267,6.656,9.9l4.442-6.014s-7.412-9.176-11.1-3.885M245.1,367.9a7.211,7.211,0,0,0-.051-.884l-1.538,2.085c-9.572-2.075-5.5-8.008-5.5-8.008,2.989-4.455,9.413,3.235,9.413,3.235l-1.5,1.508c.021.05.03.077.03.077Z" transform="translate(-233.134 -344.371)"/><path class="e" d="M242.96,365.3a7.179,7.179,0,0,1,.051.884l.85-1.988s-.009-.027-.03-.077Z" transform="translate(-231.044 -342.661)"/><path class="d" d="M238.511,360.359s5.262,1.309,5.807,6.091l.871-1.181c-.238-.6-2.091-4.909-6.678-4.909" transform="translate(-232.402 -343.809)"/><path class="d" d="M264.189,364.046l4.441,6.014c12.145-2.632,6.662-9.9,6.662-9.9-3.691-5.292-11.1,3.885-11.1,3.885m2.5,1.859s.009-.025.029-.074l-1.505-1.508s6.423-7.69,9.413-3.235c0,0,4.073,5.934-5.5,8.008l-1.538-2.085a6.972,6.972,0,0,0-.048.884Z" transform="translate(-224.562 -344.371)"/><path class="e" d="M267,365.3a6.94,6.94,0,0,0-.048.884L266.1,364.2s.009-.027.029-.077Z" transform="translate(-223.979 -342.661)"/><path class="d" d="M272.8,360.359s-5.267,1.309-5.811,6.091l-.871-1.181c.236-.6,2.09-4.909,6.682-4.909" transform="translate(-223.972 -343.809)"/><path class="b" d="M288.36,391.709l-5.55-5.276,3.621-2.239a6.852,6.852,0,0,1-6.144-6.453c.753-18.391-17.455-17.754-19.192-17.65-1.737-.1-19.945-.74-19.193,17.65a6.854,6.854,0,0,1-6.143,6.453l3.62,2.239-5.548,5.276,10.258,2.214L241.9,396.51a57.146,57.146,0,0,0,18.447,3.271l.615.445v.191l.132-.094.134.094v-.191l.614-.445a57.14,57.14,0,0,0,18.444-3.271l-2.186-2.587Z" transform="translate(-233.831 -343.899)"/><path class="c" d="M243.152,377.341a6.068,6.068,0,0,1-3.287,2.718l2.429,1.3-4.648,4.528a23.626,23.626,0,0,0,10.723,1.438l-3,3.084s2.639,2.711,9.289,3.517l.863.941s-10.219-1.484-13.617-3.04l2.188-2.587-10.258-2.214,5.246-5.185-3.318-2.33s4.514-1.172,5.588-4.122" transform="translate(-233.831 -339.219)"/><path class="c" d="M248.706,360.924s.928,9.17,13.116,6.745l-1.91-.627s4.7,1.005,7-1.624a2.186,2.186,0,0,0,.138-.17s-3.171.1-4.563-1.24c0,0,3.323-.051,4.717-1.853l-2.305.1-2.521.412-1.5-.359,2.787,1.954,1.555.719.59.413-1.286.666-1.556.309-2.412-.2-1.825-.462c-.962-.617-.052.769-.052.769l1.288.877-1.5-.309-2.786-.619-3.057-1.748-2.894-3.4" transform="translate(-229.289 -343.636)"/><path class="c" d="M271.05,377.13a6.555,6.555,0,0,0,3.4,2.861l-2.428,1.3,4.646,4.528a23.614,23.614,0,0,1-10.722,1.438l3,3.084s-2.641,2.711-9.291,3.516l-.859.941s10.217-1.484,13.616-3.04l-2.189-2.587,10.26-2.214-5.246-5.185,3.318-2.33s-4.255-.885-5.328-3.834" transform="translate(-226.207 -339.152)"/><path class="c" d="M252.034,375.445s2.142-4.216,3.483-4.372c0,0,1.021-.461,2.842,3.24l-1.124-4.216-2.092-.822-1.662.822" transform="translate(-228.273 -341.087)"/><path class="f" d="M288.36,391.709l-5.55-5.276,3.621-2.239a6.852,6.852,0,0,1-6.144-6.453c.753-18.391-17.455-17.754-19.192-17.65-1.737-.1-19.945-.74-19.193,17.65a6.854,6.854,0,0,1-6.143,6.453l3.62,2.239-5.548,5.276,10.258,2.214L241.9,396.51a57.146,57.146,0,0,0,18.447,3.271l.615.445v.191l.132-.094.134.094v-.191l.614-.445a57.14,57.14,0,0,0,18.444-3.271l-2.186-2.587Z" transform="translate(-233.831 -343.899)"/><path class="b" d="M248.64,383.3s-3.071,3.5,1.787,8.432c0,0,2.574,2.673,1.681,4.01,0,0,2.252-.683,2.716-2.09,0,0-.226,3.154-1.2,4.321,0,0,5.527-.479,5.814-4.082a4.322,4.322,0,0,1,1.393,2.368s6.219-1.887,5.506-8.5c0,0,.393-4.148-3.074-5.18" transform="translate(-229.602 -337.026)"/><path class="b" d="M250.067,358.158l-1.312,2.338s.979,6.275,10.693,7.9l-1.929-2.656s3.936,2.87,7.761.753l-4.921-2.851s5.033.9,6.78-1.16c0,0-1.311-8.179-17.072-4.319" transform="translate(-229.275 -344.797)"/><path class="c" d="M248.509,359.388s11.936-3.084,17.3,3.774l1.41-.668s.022-6.393-13.275-5.3" transform="translate(-229.35 -344.813)"/><path class="d" d="M262.938,368.56a17,17,0,0,1-2.876.586,17.057,17.057,0,0,1-2.877-.586,47.633,47.633,0,0,0-19.967-1.065l.324,2.924s1.241-.348,1.606,2.19l.925,5.19a3.76,3.76,0,0,0,2.365,2.575,13.865,13.865,0,0,0,7.657.765,8.381,8.381,0,0,0,5.571-3.193,31.876,31.876,0,0,0,2.885-5.465,1.529,1.529,0,0,1,3.02,0,31.99,31.99,0,0,0,2.885,5.465,8.384,8.384,0,0,0,5.57,3.193,13.874,13.874,0,0,0,7.66-.765,3.768,3.768,0,0,0,2.365-2.575l.923-5.19c.367-2.539,1.608-2.19,1.608-2.19l.322-2.924a47.632,47.632,0,0,0-19.966,1.065" transform="translate(-232.797 -341.799)"/><path class="b" d="M240.723,369.283a9.619,9.619,0,0,0-.709,3.439c.085,4.96,1.727,5.922,1.727,5.922,3.53,2.343,8.983.612,8.983.612,3.168-.775,4.884-6.314,4.884-6.314a4.329,4.329,0,0,0,.056-2.97c-8.759-2.987-13.391-1.457-14.942-.69" transform="translate(-231.943 -341.414)"/><path class="c" d="M255.5,370.115a1.64,1.64,0,0,0-.659-.8c-7.861-2.958-13.471-.838-13.471-.838a2.167,2.167,0,0,0-.812.945c1.551-.766,6.183-2.3,14.942.69" transform="translate(-231.777 -341.554)"/><path class="b" d="M272.426,369.283a9.651,9.651,0,0,1,.709,3.439c-.085,4.96-1.727,5.922-1.727,5.922-3.528,2.343-8.982.612-8.982.612-3.167-.775-4.884-6.314-4.884-6.314a4.331,4.331,0,0,1-.057-2.97c8.761-2.987,13.394-1.457,14.942-.69" transform="translate(-226.679 -341.414)"/><path class="c" d="M257.431,370.115a1.631,1.631,0,0,1,.661-.8c7.857-2.958,13.47-.838,13.47-.838a2.184,2.184,0,0,1,.812.945c-1.549-.766-6.182-2.3-14.942.69" transform="translate(-226.626 -341.554)"/><path class="d" d="M249.517,360.592s.4,8.487,13.052,8.333c0,0-1.468-1-1.955-1.313,0,0,2.68,1.184,7.182-1.107a36.8,36.8,0,0,1-4.744-2.12s5.375-.09,5.5-1.633c0,0,.183-6.093-12.066-5.94,0,0-9.65-.255-10.23,6.406l1.177-.723s.219-4.184,8.324-4.7c.253-.014.513-.029.781-.034,0,0,10.231-.36,10.945,4.831,0,0-2.528,1.339-7.034.439a8.345,8.345,0,0,0,4.666,3.446s-4.4,1.928-8.577-2.675a7.031,7.031,0,0,0,2.573,3.934s-6.031-.1-9.6-7.149" transform="translate(-230.037 -344.893)"/><path class="c" d="M250.579,385.7s-1.846,1.807.228,5.668c0,0-4.061-2.9-2.839-7.385" transform="translate(-229.585 -336.598)"/><path class="c" d="M261.312,385.439s1.919,6.786-3.5,9.962c0,0,7.524-1.589,4.627-11.047" transform="translate(-226.509 -336.483)"/><path class="d" d="M248.073,383.9s-2.326,3.424,2.44,8.182c0,0,2.671,2.555.629,3.962a9.271,9.271,0,0,0,3.246-1.361,7.33,7.33,0,0,1-1.857,3.52s6.08-.093,7.226-3.466a3.47,3.47,0,0,1,.786,1.886s9.086-2.663,5.166-13l-.492.466s3.168,8.349-4.056,11.27A9.582,9.582,0,0,0,259.1,393s.466,3.515-4.665,4.043a9.466,9.466,0,0,0,.655-4.689,3.265,3.265,0,0,1-2.31,2.33s.252-1.3-1.726-3.25c0,0-3.826-3.748-2.421-7.263,0,0,.32-.671-.564-.269" transform="translate(-229.656 -336.707)"/><path class="b" d="M257.374,381.859v5.3s-5.229,2.278-9.129-1.222c0,0-4.336-2.152,2.149-8.359" transform="translate(-229.864 -338.553)"/><path class="g" d="M257.374,381.859v5.3s-5.229,2.278-9.129-1.222c0,0-4.336-2.152,2.149-8.359" transform="translate(-229.864 -338.553)"/><path class="b" d="M254.907,381.859v5.3s5.229,2.278,9.128-1.222c0,0,4.339-2.152-2.147-8.359" transform="translate(-227.396 -338.553)"/><path class="g" d="M254.907,381.859v5.3s5.229,2.278,9.128-1.222c0,0,4.339-2.152-2.147-8.359" transform="translate(-227.396 -338.553)"/><path class="d" d="M255.577,382.888s-7.947,3.577-15.476,1.03c0,0,6.587,2.287,15.472-1.624,0,0,.651.131,0,.594" transform="translate(-231.917 -337.112)"/><path class="d" d="M255.549,381.8s-6.263,2.081-14.9-.441c0,0,8.879,2.124,14.631-.017,0,0,.484.017.269.458" transform="translate(-231.749 -337.403)"/><path class="d" d="M254.459,380.885c-4.843.956-13.1-2.077-13.1-2.077a24.383,24.383,0,0,0,13.291,2.625Z" transform="translate(-231.532 -338.176)"/><path class="d" d="M251.61,380.958s.289-.026.168-.354c0,0-.131-.371-.362-.195-.29.219.193.548.193.548" transform="translate(-228.49 -337.702)"/><path class="d" d="M257.922,382.873s7.965,3.535,15.481.946c0,0-6.576,2.323-15.484-1.54,0,0-.647.134,0,.594" transform="translate(-226.564 -337.117)"/><path class="d" d="M257.753,381.8s6.276,2.045,14.9-.523c0,0-8.866,2.173-14.633.06,0,0-.48.023-.265.463" transform="translate(-226.544 -337.423)"/><path class="d" d="M258.447,380.88c4.847.932,13.083-2.143,13.083-2.143a24.318,24.318,0,0,1-13.274,2.692Z" transform="translate(-226.374 -338.198)"/><path class="d" d="M258.3,380.938s-.291-.021-.172-.351c0,0,.133-.371.363-.2.288.219-.191.548-.191.548" transform="translate(-226.421 -337.707)"/><path class="d" d="M250.313,376.793c-2.115,1.22-.193,1.573-.193,1.573a17.468,17.468,0,0,1,4.606,2.971,1.917,1.917,0,0,0,2.042.928v-6.474a18.491,18.491,0,0,0-6.455,1" transform="translate(-229.102 -339.097)"/><path class="d" d="M261.247,376.793c2.109,1.22.191,1.573.191,1.573a17.52,17.52,0,0,0-4.606,2.971,1.918,1.918,0,0,1-2.043.928v-6.474a18.53,18.53,0,0,1,6.459,1" transform="translate(-227.433 -339.097)"/><path class="d" d="M248.636,372.675c0,.967-.591,1.752-1.321,1.752S246,373.642,246,372.675s.589-1.757,1.318-1.757,1.321.787,1.321,1.757" transform="translate(-230.117 -340.585)"/><path class="d" d="M261.315,372.675c0,.967.591,1.752,1.32,1.752s1.321-.784,1.321-1.752-.59-1.757-1.321-1.757-1.32.787-1.32,1.757" transform="translate(-225.44 -340.585)"/><path class="d" d="M252.4,360.262a26.3,26.3,0,0,0-5.5-11.257l.871-.7a26.87,26.87,0,0,1,5.749,11.774Z" transform="translate(-229.843 -347.488)"/><path class="h" d="M252.4,360.262a26.3,26.3,0,0,0-5.5-11.257l.871-.7a26.87,26.87,0,0,1,5.749,11.774Z" transform="translate(-229.843 -347.488)"/><path class="d" d="M248.4,348.668a1.03,1.03,0,1,1-1.03-.988,1.008,1.008,0,0,1,1.03.988" transform="translate(-230.011 -347.68)"/><path class="h" d="M248.4,348.668a1.03,1.03,0,1,1-1.03-.988A1.008,1.008,0,0,1,248.4,348.668Z" transform="translate(-230.011 -347.68)"/><path class="d" d="M259.252,360.262a26.3,26.3,0,0,1,5.5-11.257l-.869-.7a26.868,26.868,0,0,0-5.753,11.774Z" transform="translate(-226.411 -347.488)"/><path class="h" d="M259.252,360.262a26.3,26.3,0,0,1,5.5-11.257l-.869-.7a26.868,26.868,0,0,0-5.753,11.774Z" transform="translate(-226.411 -347.488)"/><path class="d" d="M264.161,348.668a1.031,1.031,0,1,1-1.03-.988,1.008,1.008,0,0,1,1.03.988" transform="translate(-225.2 -347.68)"/><path class="h" d="M264.161,348.668a1.031,1.031,0,1,1-1.03-.988A1.008,1.008,0,0,1,264.161,348.668Z" transform="translate(-225.2 -347.68)"/><g transform="translate(14.226 28.068)"><path class="d" d="M245.483,370.665c-.148.093-.389-.035-.6-.251h0a.445.445,0,0,1,.029-.693h0a5.207,5.207,0,0,1,5.3.462c.2.1.244.275.08.533h0c-.167.258-.318.287-.5.2h0a4.27,4.27,0,0,0-4.3-.248Z" transform="translate(-244.73 -369.183)"/></g><g transform="translate(34.479 28.082)"><path class="d" d="M265.717,369.718a.446.446,0,0,1,.026.693h0c-.214.215-.456.343-.6.251h0a4.251,4.251,0,0,0-4.285.277c-.177.093-.35.033-.516-.226h0c-.163-.257-.1-.4.1-.5h0a5.2,5.2,0,0,1,5.283-.493Z" transform="translate(-260.245 -369.194)"/></g></g></g><text class="i" transform="translate(612 48)"><tspan x="-6.088" y="0">TM</tspan></text></g><text class="j" transform="translate(317.5 80)"><tspan x="-9.469" y="0">BETA</tspan></text></g></svg>